<?xml version="1.0" encoding="utf-8"?><svg width="auto" height="3420" style="overflow:visible " version="1.1" xmlns="http://www.w3.org/2000/svg"><rect x="20" y="20" width="200" height="40" style="fill:white;stroke:black;stroke-width:1" /><text x="30" y="30" font-size="10" style="fill:blue">xs:schema</text><text x="30" y="40" font-size="8" style="fill:black">xmlns:xsi: http://www.w3.org/2001/XMLSchema-instance</text><text x="30" y="50" font-size="8" style="fill:black">attributeFormDefault: unqualified</text><text x="30" y="60" font-size="8" style="fill:black">elementFormDefault: qualified</text><text x="30" y="70" font-size="8" style="fill:black">xmlns:xs: http://www.w3.org/2001/XMLSchema</text><rect x="240" y="20" width="200" height="40" style="fill:white;stroke:black;stroke-width:1" /><text x="250" y="30" font-size="10" style="fill:blue">xs:element</text><path d="M220 40 C240 40 220 40 240 40" style="fill:transparent;stroke:black" /><text x="250" y="40" font-size="8" style="fill:black">name: rutas</text><rect x="460" y="20" width="200" height="40" style="fill:white;stroke:black;stroke-width:1" /><text x="470" y="30" font-size="10" style="fill:blue">xs:complexType</text><path d="M440 40 C460 40 440 40 460 40" style="fill:transparent;stroke:black" /><rect x="680" y="20" width="200" height="40" style="fill:white;stroke:black;stroke-width:1" /><text x="690" y="30" font-size="10" style="fill:blue">xs:sequence</text><path d="M660 40 C680 40 660 40 680 40" style="fill:transparent;stroke:black" /><rect x="900" y="20" width="200" height="40" style="fill:white;stroke:black;stroke-width:1" /><text x="910" y="30" font-size="10" style="fill:blue">xs:element</text><path d="M880 40 C900 40 880 40 900 40" style="fill:transparent;stroke:black" /><text x="910" y="40" font-size="8" style="fill:black">name: ruta</text><text x="910" y="50" font-size="8" style="fill:black">minOccurs: 5</text><text x="910" y="60" font-size="8" style="fill:black">maxOccurs: unbounded</text><rect x="1120" y="20" width="200" height="40" style="fill:white;stroke:black;stroke-width:1" /><text x="1130" y="30" font-size="10" style="fill:blue">xs:complexType</text><path d="M1100 40 C1120 40 1100 40 1120 40" style="fill:transparent;stroke:black" /><rect x="1340" y="20" width="200" height="40" style="fill:white;stroke:black;stroke-width:1" /><text x="1350" y="30" font-size="10" style="fill:blue">xs:sequence</text><path d="M1320 40 C1340 40 1320 40 1340 40" style="fill:transparent;stroke:black" /><rect x="1560" y="20" width="200" height="40" style="fill:white;stroke:black;stroke-width:1" /><text x="1570" y="30" font-size="10" style="fill:blue">xs:element</text><path d="M1540 40 C1560 40 1540 40 1560 40" style="fill:transparent;stroke:black" /><text x="1570" y="40" font-size="8" style="fill:black">name: tipo</text><text x="1570" y="50" font-size="8" style="fill:black">type: xs:string</text><rect x="1560" y="70" width="200" height="40" style="fill:white;stroke:black;stroke-width:1" /><text x="1570" y="80" font-size="10" style="fill:blue">xs:element</text><path d="M1540 40 C1560 40 1540 90 1560 90" style="fill:transparent;stroke:black" /><text x="1570" y="90" font-size="8" style="fill:black">name: transporte</text><text x="1570" y="100" font-size="8" style="fill:black">type: xs:string</text><rect x="1560" y="120" width="200" height="40" style="fill:white;stroke:black;stroke-width:1" /><text x="1570" y="130" font-size="10" style="fill:blue">xs:element</text><path d="M1540 40 C1560 40 1540 140 1560 140" style="fill:transparent;stroke:black" /><text x="1570" y="140" font-size="8" style="fill:black">name: fechaInicio</text><text x="1570" y="150" font-size="8" style="fill:black">type: xs:date</text><rect x="1560" y="170" width="200" height="40" style="fill:white;stroke:black;stroke-width:1" /><text x="1570" y="180" font-size="10" style="fill:blue">xs:element</text><path d="M1540 40 C1560 40 1540 190 1560 190" style="fill:transparent;stroke:black" /><text x="1570" y="190" font-size="8" style="fill:black">name: hora</text><text x="1570" y="200" font-size="8" style="fill:black">type: xs:time</text><rect x="1560" y="220" width="200" height="40" style="fill:white;stroke:black;stroke-width:1" /><text x="1570" y="230" font-size="10" style="fill:blue">xs:element</text><path d="M1540 40 C1560 40 1540 240 1560 240" style="fill:transparent;stroke:black" /><text x="1570" y="240" font-size="8" style="fill:black">name: duracion</text><text x="1570" y="250" font-size="8" style="fill:black">type: xs:string</text><rect x="1560" y="270" width="200" height="40" style="fill:white;stroke:black;stroke-width:1" /><text x="1570" y="280" font-size="10" style="fill:blue">xs:element</text><path d="M1540 40 C1560 40 1540 290 1560 290" style="fill:transparent;stroke:black" /><text x="1570" y="290" font-size="8" style="fill:black">name: agencia</text><text x="1570" y="300" font-size="8" style="fill:black">type: xs:string</text><rect x="1560" y="320" width="200" height="40" style="fill:white;stroke:black;stroke-width:1" /><text x="1570" y="330" font-size="10" style="fill:blue">xs:element</text><path d="M1540 40 C1560 40 1540 340 1560 340" style="fill:transparent;stroke:black" /><text x="1570" y="340" font-size="8" style="fill:black">name: descripcion</text><text x="1570" y="350" font-size="8" style="fill:black">type: xs:string</text><rect x="1560" y="370" width="200" height="40" style="fill:white;stroke:black;stroke-width:1" /><text x="1570" y="380" font-size="10" style="fill:blue">xs:element</text><path d="M1540 40 C1560 40 1540 390 1560 390" style="fill:transparent;stroke:black" /><text x="1570" y="390" font-size="8" style="fill:black">name: publico</text><text x="1570" y="400" font-size="8" style="fill:black">type: xs:string</text><rect x="1560" y="420" width="200" height="40" style="fill:white;stroke:black;stroke-width:1" /><text x="1570" y="430" font-size="10" style="fill:blue">xs:element</text><path d="M1540 40 C1560 40 1540 440 1560 440" style="fill:transparent;stroke:black" /><text x="1570" y="440" font-size="8" style="fill:black">name: lugarInicio</text><text x="1570" y="450" font-size="8" style="fill:black">type: xs:string</text><rect x="1560" y="470" width="200" height="40" style="fill:white;stroke:black;stroke-width:1" /><text x="1570" y="480" font-size="10" style="fill:blue">xs:element</text><path d="M1540 40 C1560 40 1540 490 1560 490" style="fill:transparent;stroke:black" /><text x="1570" y="490" font-size="8" style="fill:black">name: calleInicio</text><text x="1570" y="500" font-size="8" style="fill:black">type: xs:string</text><rect x="1560" y="520" width="200" height="40" style="fill:white;stroke:black;stroke-width:1" /><text x="1570" y="530" font-size="10" style="fill:blue">xs:element</text><path d="M1540 40 C1560 40 1540 540 1560 540" style="fill:transparent;stroke:black" /><text x="1570" y="540" font-size="8" style="fill:black">name: coordenadas</text><rect x="1780" y="520" width="200" height="40" style="fill:white;stroke:black;stroke-width:1" /><text x="1790" y="530" font-size="10" style="fill:blue">xs:complexType</text><path d="M1760 540 C1780 540 1760 540 1780 540" style="fill:transparent;stroke:black" /><rect x="2000" y="520" width="200" height="40" style="fill:white;stroke:black;stroke-width:1" /><text x="2010" y="530" font-size="10" style="fill:blue">xs:sequence</text><path d="M1980 540 C2000 540 1980 540 2000 540" style="fill:transparent;stroke:black" /><rect x="2220" y="520" width="200" height="40" style="fill:white;stroke:black;stroke-width:1" /><text x="2230" y="530" font-size="10" style="fill:blue">xs:element</text><path d="M2200 540 C2220 540 2200 540 2220 540" style="fill:transparent;stroke:black" /><text x="2230" y="540" font-size="8" style="fill:black">name: longitud</text><text x="2230" y="550" font-size="8" style="fill:black">type: xs:decimal</text><rect x="2220" y="570" width="200" height="40" style="fill:white;stroke:black;stroke-width:1" /><text x="2230" y="580" font-size="10" style="fill:blue">xs:element</text><path d="M2200 540 C2220 540 2200 590 2220 590" style="fill:transparent;stroke:black" /><text x="2230" y="590" font-size="8" style="fill:black">name: latitud</text><text x="2230" y="600" font-size="8" style="fill:black">type: xs:decimal</text><rect x="2220" y="620" width="200" height="40" style="fill:white;stroke:black;stroke-width:1" /><text x="2230" y="630" font-size="10" style="fill:blue">xs:element</text><path d="M2200 540 C2220 540 2200 640 2220 640" style="fill:transparent;stroke:black" /><text x="2230" y="640" font-size="8" style="fill:black">name: altitud</text><rect x="2440" y="620" width="200" height="40" style="fill:white;stroke:black;stroke-width:1" /><text x="2450" y="630" font-size="10" style="fill:blue">xs:complexType</text><path d="M2420 640 C2440 640 2420 640 2440 640" style="fill:transparent;stroke:black" /><rect x="2660" y="620" width="200" height="40" style="fill:white;stroke:black;stroke-width:1" /><text x="2670" y="630" font-size="10" style="fill:blue">xs:simpleContent</text><path d="M2640 640 C2660 640 2640 640 2660 640" style="fill:transparent;stroke:black" /><rect x="2880" y="620" width="200" height="40" style="fill:white;stroke:black;stroke-width:1" /><text x="2890" y="630" font-size="10" style="fill:blue">xs:extension</text><path d="M2860 640 C2880 640 2860 640 2880 640" style="fill:transparent;stroke:black" /><text x="2890" y="640" font-size="8" style="fill:black">base: xs:unsignedByte</text><rect x="3100" y="620" width="200" height="40" style="fill:white;stroke:black;stroke-width:1" /><text x="3110" y="630" font-size="10" style="fill:blue">xs:attribute</text><path d="M3080 640 C3100 640 3080 640 3100 640" style="fill:transparent;stroke:black" /><text x="3110" y="640" font-size="8" style="fill:black">name: unidad</text><text x="3110" y="650" font-size="8" style="fill:black">type: xs:string</text><text x="3110" y="660" font-size="8" style="fill:black">use: required</text><rect x="1560" y="1020" width="200" height="40" style="fill:white;stroke:black;stroke-width:1" /><text x="1570" y="1030" font-size="10" style="fill:blue">xs:element</text><path d="M1540 40 C1560 40 1540 1040 1560 1040" style="fill:transparent;stroke:black" /><text x="1570" y="1040" font-size="8" style="fill:black">name: referencias</text><rect x="1780" y="1020" width="200" height="40" style="fill:white;stroke:black;stroke-width:1" /><text x="1790" y="1030" font-size="10" style="fill:blue">xs:complexType</text><path d="M1760 1040 C1780 1040 1760 1040 1780 1040" style="fill:transparent;stroke:black" /><rect x="2000" y="1020" width="200" height="40" style="fill:white;stroke:black;stroke-width:1" /><text x="2010" y="1030" font-size="10" style="fill:blue">xs:sequence</text><path d="M1980 1040 C2000 1040 1980 1040 2000 1040" style="fill:transparent;stroke:black" /><rect x="2220" y="1020" width="200" height="40" style="fill:white;stroke:black;stroke-width:1" /><text x="2230" y="1030" font-size="10" style="fill:blue">xs:element</text><path d="M2200 1040 C2220 1040 2200 1040 2220 1040" style="fill:transparent;stroke:black" /><text x="2230" y="1040" font-size="8" style="fill:black">name: referencia</text><text x="2230" y="1050" font-size="8" style="fill:black">minOccurs: 3</text><text x="2230" y="1060" font-size="8" style="fill:black">maxOccurs: unbounded</text><text x="2230" y="1070" font-size="8" style="fill:black">type: xs:string</text><rect x="1560" y="1220" width="200" height="40" style="fill:white;stroke:black;stroke-width:1" /><text x="1570" y="1230" font-size="10" style="fill:blue">xs:element</text><path d="M1540 40 C1560 40 1540 1240 1560 1240" style="fill:transparent;stroke:black" /><text x="1570" y="1240" font-size="8" style="fill:black">name: recomendacion</text><text x="1570" y="1250" font-size="8" style="fill:black">type: xs:unsignedByte</text><rect x="1560" y="1270" width="200" height="40" style="fill:white;stroke:black;stroke-width:1" /><text x="1570" y="1280" font-size="10" style="fill:blue">xs:element</text><path d="M1540 40 C1560 40 1540 1290 1560 1290" style="fill:transparent;stroke:black" /><text x="1570" y="1290" font-size="8" style="fill:black">name: hitos</text><rect x="1780" y="1270" width="200" height="40" style="fill:white;stroke:black;stroke-width:1" /><text x="1790" y="1280" font-size="10" style="fill:blue">xs:complexType</text><path d="M1760 1290 C1780 1290 1760 1290 1780 1290" style="fill:transparent;stroke:black" /><rect x="2000" y="1270" width="200" height="40" style="fill:white;stroke:black;stroke-width:1" /><text x="2010" y="1280" font-size="10" style="fill:blue">xs:sequence</text><path d="M1980 1290 C2000 1290 1980 1290 2000 1290" style="fill:transparent;stroke:black" /><rect x="2220" y="1270" width="200" height="40" style="fill:white;stroke:black;stroke-width:1" /><text x="2230" y="1280" font-size="10" style="fill:blue">xs:element</text><path d="M2200 1290 C2220 1290 2200 1290 2220 1290" style="fill:transparent;stroke:black" /><text x="2230" y="1290" font-size="8" style="fill:black">name: hito</text><text x="2230" y="1300" font-size="8" style="fill:black">minOccurs: 3</text><text x="2230" y="1310" font-size="8" style="fill:black">maxOccurs: unbounded</text><rect x="2440" y="1270" width="200" height="40" style="fill:white;stroke:black;stroke-width:1" /><text x="2450" y="1280" font-size="10" style="fill:blue">xs:complexType</text><path d="M2420 1290 C2440 1290 2420 1290 2440 1290" style="fill:transparent;stroke:black" /><rect x="2660" y="1270" width="200" height="40" style="fill:white;stroke:black;stroke-width:1" /><text x="2670" y="1280" font-size="10" style="fill:blue">xs:sequence</text><path d="M2640 1290 C2660 1290 2640 1290 2660 1290" style="fill:transparent;stroke:black" /><rect x="2880" y="1270" width="200" height="40" style="fill:white;stroke:black;stroke-width:1" /><text x="2890" y="1280" font-size="10" style="fill:blue">xs:element</text><path d="M2860 1290 C2880 1290 2860 1290 2880 1290" style="fill:transparent;stroke:black" /><text x="2890" y="1290" font-size="8" style="fill:black">name: descripcion</text><text x="2890" y="1300" font-size="8" style="fill:black">type: xs:string</text><rect x="2880" y="1320" width="200" height="40" style="fill:white;stroke:black;stroke-width:1" /><text x="2890" y="1330" font-size="10" style="fill:blue">xs:element</text><path d="M2860 1290 C2880 1290 2860 1340 2880 1340" style="fill:transparent;stroke:black" /><text x="2890" y="1340" font-size="8" style="fill:black">name: coordenadas</text><rect x="3100" y="1320" width="200" height="40" style="fill:white;stroke:black;stroke-width:1" /><text x="3110" y="1330" font-size="10" style="fill:blue">xs:complexType</text><path d="M3080 1340 C3100 1340 3080 1340 3100 1340" style="fill:transparent;stroke:black" /><rect x="3320" y="1320" width="200" height="40" style="fill:white;stroke:black;stroke-width:1" /><text x="3330" y="1330" font-size="10" style="fill:blue">xs:sequence</text><path d="M3300 1340 C3320 1340 3300 1340 3320 1340" style="fill:transparent;stroke:black" /><rect x="3540" y="1320" width="200" height="40" style="fill:white;stroke:black;stroke-width:1" /><text x="3550" y="1330" font-size="10" style="fill:blue">xs:element</text><path d="M3520 1340 C3540 1340 3520 1340 3540 1340" style="fill:transparent;stroke:black" /><text x="3550" y="1340" font-size="8" style="fill:black">name: longitud</text><text x="3550" y="1350" font-size="8" style="fill:black">type: xs:decimal</text><rect x="3540" y="1370" width="200" height="40" style="fill:white;stroke:black;stroke-width:1" /><text x="3550" y="1380" font-size="10" style="fill:blue">xs:element</text><path d="M3520 1340 C3540 1340 3520 1390 3540 1390" style="fill:transparent;stroke:black" /><text x="3550" y="1390" font-size="8" style="fill:black">name: latitud</text><text x="3550" y="1400" font-size="8" style="fill:black">type: xs:decimal</text><rect x="3540" y="1420" width="200" height="40" style="fill:white;stroke:black;stroke-width:1" /><text x="3550" y="1430" font-size="10" style="fill:blue">xs:element</text><path d="M3520 1340 C3540 1340 3520 1440 3540 1440" style="fill:transparent;stroke:black" /><text x="3550" y="1440" font-size="8" style="fill:black">name: altitud</text><rect x="3760" y="1420" width="200" height="40" style="fill:white;stroke:black;stroke-width:1" /><text x="3770" y="1430" font-size="10" style="fill:blue">xs:complexType</text><path d="M3740 1440 C3760 1440 3740 1440 3760 1440" style="fill:transparent;stroke:black" /><rect x="3980" y="1420" width="200" height="40" style="fill:white;stroke:black;stroke-width:1" /><text x="3990" y="1430" font-size="10" style="fill:blue">xs:simpleContent</text><path d="M3960 1440 C3980 1440 3960 1440 3980 1440" style="fill:transparent;stroke:black" /><rect x="4200" y="1420" width="200" height="40" style="fill:white;stroke:black;stroke-width:1" /><text x="4210" y="1430" font-size="10" style="fill:blue">xs:extension</text><path d="M4180 1440 C4200 1440 4180 1440 4200 1440" style="fill:transparent;stroke:black" /><text x="4210" y="1440" font-size="8" style="fill:black">base: xs:unsignedShort</text><rect x="4420" y="1420" width="200" height="40" style="fill:white;stroke:black;stroke-width:1" /><text x="4430" y="1430" font-size="10" style="fill:blue">xs:attribute</text><path d="M4400 1440 C4420 1440 4400 1440 4420 1440" style="fill:transparent;stroke:black" /><text x="4430" y="1440" font-size="8" style="fill:black">name: unidad</text><text x="4430" y="1450" font-size="8" style="fill:black">type: xs:string</text><text x="4430" y="1460" font-size="8" style="fill:black">use: required</text><rect x="2880" y="1820" width="200" height="40" style="fill:white;stroke:black;stroke-width:1" /><text x="2890" y="1830" font-size="10" style="fill:blue">xs:element</text><path d="M2860 1290 C2880 1290 2860 1840 2880 1840" style="fill:transparent;stroke:black" /><text x="2890" y="1840" font-size="8" style="fill:black">name: distancia</text><rect x="3100" y="1820" width="200" height="40" style="fill:white;stroke:black;stroke-width:1" /><text x="3110" y="1830" font-size="10" style="fill:blue">xs:complexType</text><path d="M3080 1840 C3100 1840 3080 1840 3100 1840" style="fill:transparent;stroke:black" /><rect x="3320" y="1820" width="200" height="40" style="fill:white;stroke:black;stroke-width:1" /><text x="3330" y="1830" font-size="10" style="fill:blue">xs:simpleContent</text><path d="M3300 1840 C3320 1840 3300 1840 3320 1840" style="fill:transparent;stroke:black" /><rect x="3540" y="1820" width="200" height="40" style="fill:white;stroke:black;stroke-width:1" /><text x="3550" y="1830" font-size="10" style="fill:blue">xs:extension</text><path d="M3520 1840 C3540 1840 3520 1840 3540 1840" style="fill:transparent;stroke:black" /><text x="3550" y="1840" font-size="8" style="fill:black">base: xs:string</text><rect x="3760" y="1820" width="200" height="40" style="fill:white;stroke:black;stroke-width:1" /><text x="3770" y="1830" font-size="10" style="fill:blue">xs:attribute</text><path d="M3740 1840 C3760 1840 3740 1840 3760 1840" style="fill:transparent;stroke:black" /><text x="3770" y="1840" font-size="8" style="fill:black">name: unidad</text><text x="3770" y="1850" font-size="8" style="fill:black">type: xs:string</text><text x="3770" y="1860" font-size="8" style="fill:black">use: required</text><rect x="2880" y="2070" width="200" height="40" style="fill:white;stroke:black;stroke-width:1" /><text x="2890" y="2080" font-size="10" style="fill:blue">xs:element</text><path d="M2860 1290 C2880 1290 2860 2090 2880 2090" style="fill:transparent;stroke:black" /><text x="2890" y="2090" font-size="8" style="fill:black">name: galeriaFotos</text><rect x="3100" y="2070" width="200" height="40" style="fill:white;stroke:black;stroke-width:1" /><text x="3110" y="2080" font-size="10" style="fill:blue">xs:complexType</text><path d="M3080 2090 C3100 2090 3080 2090 3100 2090" style="fill:transparent;stroke:black" /><rect x="3320" y="2070" width="200" height="40" style="fill:white;stroke:black;stroke-width:1" /><text x="3330" y="2080" font-size="10" style="fill:blue">xs:sequence</text><path d="M3300 2090 C3320 2090 3300 2090 3320 2090" style="fill:transparent;stroke:black" /><rect x="3540" y="2070" width="200" height="40" style="fill:white;stroke:black;stroke-width:1" /><text x="3550" y="2080" font-size="10" style="fill:blue">xs:element</text><path d="M3520 2090 C3540 2090 3520 2090 3540 2090" style="fill:transparent;stroke:black" /><text x="3550" y="2090" font-size="8" style="fill:black">name: foto</text><text x="3550" y="2100" font-size="8" style="fill:black">minOccurs: 1</text><text x="3550" y="2110" font-size="8" style="fill:black">maxOccurs: 5</text><rect x="3760" y="2070" width="200" height="40" style="fill:white;stroke:black;stroke-width:1" /><text x="3770" y="2080" font-size="10" style="fill:blue">xs:complexType</text><path d="M3740 2090 C3760 2090 3740 2090 3760 2090" style="fill:transparent;stroke:black" /><rect x="3980" y="2070" width="200" height="40" style="fill:white;stroke:black;stroke-width:1" /><text x="3990" y="2080" font-size="10" style="fill:blue">xs:attribute</text><path d="M3960 2090 C3980 2090 3960 2090 3980 2090" style="fill:transparent;stroke:black" /><text x="3990" y="2090" font-size="8" style="fill:black">name: ruta</text><text x="3990" y="2100" font-size="8" style="fill:black">type: xs:string</text><text x="3990" y="2110" font-size="8" style="fill:black">use: required</text><rect x="2880" y="2370" width="200" height="40" style="fill:white;stroke:black;stroke-width:1" /><text x="2890" y="2380" font-size="10" style="fill:blue">xs:element</text><path d="M2860 1290 C2880 1290 2860 2390 2880 2390" style="fill:transparent;stroke:black" /><text x="2890" y="2390" font-size="8" style="fill:black">name: galeriaVideos</text><text x="2890" y="2400" font-size="8" style="fill:black">minOccurs: 0</text><text x="2890" y="2410" font-size="8" style="fill:black">maxOccurs: 3</text><rect x="3100" y="2370" width="200" height="40" style="fill:white;stroke:black;stroke-width:1" /><text x="3110" y="2380" font-size="10" style="fill:blue">xs:complexType</text><path d="M3080 2390 C3100 2390 3080 2390 3100 2390" style="fill:transparent;stroke:black" /><rect x="3320" y="2370" width="200" height="40" style="fill:white;stroke:black;stroke-width:1" /><text x="3330" y="2380" font-size="10" style="fill:blue">xs:sequence</text><path d="M3300 2390 C3320 2390 3300 2390 3320 2390" style="fill:transparent;stroke:black" /><rect x="3540" y="2370" width="200" height="40" style="fill:white;stroke:black;stroke-width:1" /><text x="3550" y="2380" font-size="10" style="fill:blue">xs:element</text><path d="M3520 2390 C3540 2390 3520 2390 3540 2390" style="fill:transparent;stroke:black" /><text x="3550" y="2390" font-size="8" style="fill:black">name: video</text><rect x="3760" y="2370" width="200" height="40" style="fill:white;stroke:black;stroke-width:1" /><text x="3770" y="2380" font-size="10" style="fill:blue">xs:complexType</text><path d="M3740 2390 C3760 2390 3740 2390 3760 2390" style="fill:transparent;stroke:black" /><rect x="3980" y="2370" width="200" height="40" style="fill:white;stroke:black;stroke-width:1" /><text x="3990" y="2380" font-size="10" style="fill:blue">xs:attribute</text><path d="M3960 2390 C3980 2390 3960 2390 3980 2390" style="fill:transparent;stroke:black" /><text x="3990" y="2390" font-size="8" style="fill:black">name: ruta</text><text x="3990" y="2400" font-size="8" style="fill:black">type: xs:string</text><text x="3990" y="2410" font-size="8" style="fill:black">use: required</text><rect x="2660" y="2720" width="200" height="40" style="fill:white;stroke:black;stroke-width:1" /><text x="2670" y="2730" font-size="10" style="fill:blue">xs:attribute</text><path d="M2640 1290 C2660 1290 2640 2740 2660 2740" style="fill:transparent;stroke:black" /><text x="2670" y="2740" font-size="8" style="fill:black">name: nombre</text><text x="2670" y="2750" font-size="8" style="fill:black">type: xs:string</text><text x="2670" y="2760" font-size="8" style="fill:black">use: required</text><rect x="1340" y="3070" width="200" height="40" style="fill:white;stroke:black;stroke-width:1" /><text x="1350" y="3080" font-size="10" style="fill:blue">xs:attribute</text><path d="M1320 40 C1340 40 1320 3090 1340 3090" style="fill:transparent;stroke:black" /><text x="1350" y="3090" font-size="8" style="fill:black">name: nombre</text><text x="1350" y="3100" font-size="8" style="fill:black">type: xs:string</text><text x="1350" y="3110" font-size="8" style="fill:black">use: required</text></svg>